{
  "accessors": [
    {
      "bufferView": 3,
      "componentType": 5126,
      "count": 951,
      "max": [
        6.91518497467041,
        9.513175010681152,
        2.0681467056274414
      ],
      "min": [
        -6.91518497467041,
        -5.046167850494385,
        -13.727731704711914
      ],
      "type": "VEC3"
    },
    {
      "bufferView": 3,
      "byteOffset": 11412,
      "componentType": 5126,
      "count": 951,
      "max": [
        1.0,
        1.0,
        1.0
      ],
      "min": [
        -1.0,
        -1.0,
        -1.0
      ],
      "type": "VEC3"
    },
    {
      "bufferView": 4,
      "componentType": 5126,
      "count": 951,
      "max": [
        1.0,
        0.9936909675598145,
        0.9999443888664246,
        1.0
      ],
      "min": [
        -0.9999716281890869,
        -0.9976498484611511,
        -0.9999443292617798,
        -1.0
      ],
      "type": "VEC4"
    },
    {
      "bufferView": 2,
      "componentType": 5126,
      "count": 951,
      "max": [
        0.9974059462547302,
        0.9884489178657532
      ],
      "min": [
        0.00238040741533041,
        0.014602899551391602
      ],
      "type": "VEC2"
    },
    {
      "bufferView": 1,
      "componentType": 5125,
      "count": 4140,
      "type": "SCALAR"
    },
    {
      "bufferView": 5,
      "componentType": 5126,
      "count": 23,
      "max": [
        1.0,
        0.0,
        0.0,
        0.0,
        0.0,
        1.0,
        6.123234262925839e-17,
        0.0,
        0.0,
        1.5099580252808664e-07,
        1.0,
        0.0,
        5.94672966003418,
        4.940609931945801,
        10.94270133972168,
        1.0
      ],
      "min": [
        1.0,
        0.0,
        0.0,
        0.0,
        0.0,
        -1.0,
        -1.5099580252808664e-07,
        0.0,
        0.0,
        -6.123234262925839e-17,
        -1.0,
        0.0,
        -5.946725845336914,
        -5.234148979187012,
        -2.8758296966552734,
        1.0
      ],
      "type": "MAT4"
    },
    {
      "bufferView": 0,
      "componentType": 5123,
      "count": 951,
      "type": "VEC4"
    },
    {
      "bufferView": 4,
      "byteOffset": 15216,
      "componentType": 5126,
      "count": 951,
      "max": [
        1.0,
        0.49803924560546875,
        0.3019607961177826,
        0.0
      ],
      "min": [
        0.3960784077644348,
        0.0,
        0.0,
        0.0
      ],
      "type": "VEC4"
    }
  ],
  "asset": {
    "extras": {
      "author": "Pikachar1274567 (https://sketchfab.com/pikacharbutag)",
      "license": "CC-BY-4.0 (http://creativecommons.org/licenses/by/4.0/)",
      "source": "https://sketchfab.com/3d-models/smallfry-105ff70a7a8347bbbc22ec31249aebf3",
      "title": "Smallfry"
    },
    "generator": "Sketchfab-14.5.0",
    "version": "2.0"
  },
  "bufferViews": [
    {
      "buffer": 0,
      "byteLength": 7608,
      "byteStride": 8,
      "name": "shortBufferViews",
      "target": 34962
    },
    {
      "buffer": 0,
      "byteLength": 16560,
      "byteOffset": 7608,
      "name": "floatBufferViews",
      "target": 34963
    },
    {
      "buffer": 0,
      "byteLength": 7608,
      "byteOffset": 24168,
      "byteStride": 8,
      "name": "floatBufferViews",
      "target": 34962
    },
    {
      "buffer": 0,
      "byteLength": 22824,
      "byteOffset": 31776,
      "byteStride": 12,
      "name": "floatBufferViews",
      "target": 34962
    },
    {
      "buffer": 0,
      "byteLength": 30432,
      "byteOffset": 54600,
      "byteStride": 16,
      "name": "floatBufferViews",
      "target": 34962
    },
    {
      "buffer": 0,
      "byteLength": 1472,
      "byteOffset": 85032,
      "name": "floatBufferViews"
    }
  ],
  "buffers": [
    {
      "byteLength": 86504,
      "uri": "scene.bin"
    }
  ],
  "images": [
    {
      "uri": "textures/M_CoopSalmonBaby_baseColor.png"
    },
    {
      "uri": "textures/M_CoopSalmonBaby_metallicRoughness.png"
    },
    {
      "uri": "textures/M_CoopSalmonBaby_emissive.png"
    },
    {
      "uri": "textures/M_CoopSalmonBaby_normal.png"
    }
  ],
  "materials": [
    {
      "doubleSided": true,
      "emissiveFactor": [
        1.0,
        1.0,
        1.0
      ],
      "emissiveTexture": {
        "index": 2
      },
      "name": "M_CoopSalmonBaby",
      "normalTexture": {
        "index": 3
      },
      "occlusionTexture": {
        "index": 1
      },
      "pbrMetallicRoughness": {
        "baseColorTexture": {
          "index": 0
        },
        "metallicRoughnessTexture": {
          "index": 1
        }
      }
    }
  ],
  "meshes": [
    {
      "name": "CoopSalmonBaby_Body_Model__M_CoopSalmonBaby_M_CoopSalmonBaby_0",
      "primitives": [
        {
          "attributes": {
            "JOINTS_0": 6,
            "NORMAL": 1,
            "POSITION": 0,
            "TANGENT": 2,
            "TEXCOORD_0": 3,
            "TEXCOORD_1": 3,
            "TEXCOORD_2": 3,
            "TEXCOORD_3": 3,
            "WEIGHTS_0": 7
          },
          "indices": 4,
          "material": 0,
          "mode": 4
        }
      ]
    }
  ],
  "nodes": [
    {
      "children": [
        1
      ],
      "matrix": [
        1.0,
        0.0,
        0.0,
        0.0,
        0.0,
        2.220446049250313e-16,
        -1.0,
        0.0,
        0.0,
        1.0,
        2.220446049250313e-16,
        0.0,
        0.0,
        0.0,
        0.0,
        1.0
      ],
      "name": "Sketchfab_model"
    },
    {
      "children": [
        2
      ],
      "matrix": [
        0.02539999969303608,
        0.0,
        0.0,
        0.0,
        0.0,
        0.0,
        0.02539999969303608,
        0.0,
        0.0,
        -0.02539999969303608,
        0.0,
        0.0,
        0.0,
        0.0,
        0.0,
        1.0
      ],
      "name": "1065297b086c402786da1053c0ce3511.fbx"
    },
    {
      "children": [
        3
      ],
      "name": "RootNode"
    },
    {
      "children": [
        4,
        6,
        5
      ],
      "name": "Object_3"
    },
    {
      "children": [
        7
      ],
      "name": "_rootJoint"
    },
    {
      "matrix": [
        1.0,
        0.0,
        0.0,
        0.0,
        0.0,
        6.123233995736765e-17,
        -0.9999999999999999,
        0.0,
        0.0,
        0.9999999999999999,
        6.123233995736765e-17,
        0.0,
        0.0,
        8.881784197001252e-16,
        -2.220446049250313e-16,
        1.0
      ],
      "name": "Object_5"
    },
    {
      "mesh": 0,
      "name": "Object_6",
      "skin": 0
    },
    {
      "children": [
        8
      ],
      "name": "Root_00",
      "translation": [
        0.0,
        0.0,
        -5.0
      ]
    },
    {
      "children": [
        9,
        13
      ],
      "name": "Joint_Root_01"
    },
    {
      "children": [
        10,
        12
      ],
      "name": "Spine_0_02"
    },
    {
      "children": [
        11
      ],
      "name": "Spine_1_03",
      "translation": [
        0.0,
        0.0,
        -3.245420455932617
      ]
    },
    {
      "name": "Tail_04",
      "translation": [
        0.0,
        0.5032706260681152,
        -2.6972808837890625
      ]
    },
    {
      "name": "Stomach_05",
      "translation": [
        0.0,
        -2.493567943572998,
        0.0
      ]
    },
    {
      "children": [
        14,
        17,
        20
      ],
      "name": "Waist_06"
    },
    {
      "children": [
        15
      ],
      "name": "HandL_0_07",
      "translation": [
        2.5599489212036133,
        1.188337802886963,
        2.1241726875305176
      ]
    },
    {
      "children": [
        16
      ],
      "name": "HandL_1_08",
      "translation": [
        2.386776924133301,
        0.0,
        0.0
      ]
    },
    {
      "name": "HandL_2_09",
      "translation": [
        1.0,
        0.0,
        0.0
      ]
    },
    {
      "children": [
        18
      ],
      "name": "HandR_0_010",
      "rotation": [
        1.0,
        0.0,
        0.0,
        7.549790126404332e-08
      ],
      "translation": [
        -2.559950113296509,
        1.188340187072754,
        2.1241700649261475
      ]
    },
    {
      "children": [
        19
      ],
      "name": "HandR_1_011",
      "rotation": [
        -2.6469779601696886e-23,
        -0.0,
        0.0,
        1.0
      ],
      "translation": [
        -2.386779546737671,
        0.0,
        0.0
      ]
    },
    {
      "name": "HandR_2_012",
      "translation": [
        -1.0,
        0.0,
        0.0
      ]
    },
    {
      "children": [
        21,
        22,
        24
      ],
      "name": "Head_013",
      "translation": [
        0.0,
        2.56894588470459,
        1.1263906955718994
      ]
    },
    {
      "name": "Hair_014",
      "translation": [
        0.0,
        2.665203094482422,
        0.5488870143890381
      ]
    },
    {
      "children": [
        23
      ],
      "name": "JoeDown_0_015",
      "translation": [
        0.0,
        -0.7950992584228516,
        1.3251655101776123
      ]
    },
    {
      "name": "JoeDown_1_016",
      "translation": [
        0.0,
        -0.4638080596923828,
        2.7828474044799805
      ]
    },
    {
      "children": [
        25,
        26,
        27,
        28
      ],
      "name": "JoeUp_017",
      "translation": [
        0.0,
        1.6564569473266602,
        2.5840728282928467
      ]
    },
    {
      "name": "EyeL_018",
      "translation": [
        2.203749656677246,
        0.7152032852172852,
        0.09868144989013672
      ]
    },
    {
      "name": "EyeR_019",
      "rotation": [
        1.0,
        0.0,
        0.0,
        7.549790126404332e-08
      ],
      "translation": [
        -2.203749895095825,
        0.7152070999145508,
        0.09868645668029785
      ]
    },
    {
      "name": "EyelidsL_020",
      "translation": [
        2.203749656677246,
        0.7152032852172852,
        0.09868144989013672
      ]
    },
    {
      "name": "EyelidsR_021",
      "rotation": [
        1.0,
        0.0,
        0.0,
        7.549790126404332e-08
      ],
      "translation": [
        -2.203749895095825,
        0.7152070999145508,
        0.09868645668029785
      ]
    }
  ],
  "samplers": [
    {
      "magFilter": 9729,
      "minFilter": 9987,
      "wrapS": 10497,
      "wrapT": 10497
    }
  ],
  "scene": 0,
  "scenes": [
    {
      "name": "Sketchfab_Scene",
      "nodes": [
        0
      ]
    }
  ],
  "skins": [
    {
      "inverseBindMatrices": 5,
      "joints": [
        4,
        7,
        8,
        9,
        10,
        11,
        12,
        13,
        14,
        15,
        16,
        17,
        18,
        19,
        20,
        21,
        22,
        23,
        24,
        25,
        26,
        27,
        28
      ],
      "skeleton": 4
    }
  ],
  "textures": [
    {
      "sampler": 0,
      "source": 0
    },
    {
      "sampler": 0,
      "source": 1
    },
    {
      "sampler": 0,
      "source": 2
    },
    {
      "sampler": 0,
      "source": 3
    }
  ]
}
